#!OML:ASF H:\Martial Arts Walks\Project 1\Capture day 1\Session 1\male.ASF
:FULLY-SPECIFIED
:DEGREES
1835
root -4.44656 17.1814 -7.24352 -273.547 56.2723 -276.819
lowerback 24.2763 3.67714 -6.49704
upperback 2.30563 2.66111 -9.28346
thorax -10.8305 1.57891 -7.79323
lowerneck -4.26728 9.71071 0.724968
upperneck 6.34562 14.244 -12.2231
head 3.54788 6.77494 -3.08976
rclavicle -2.22639e-014 5.725e-014
rhumerus -22.0412 51.9081 -57.1478
rradius 100.852
rwrist 12.371
rhand -0.309885 -26.0927
rfingers 7.12502
rthumb 25.2935 -54.4358
lclavicle -2.22639e-014 5.725e-014
lhumerus -25.8168 16.2738 48.2174
lradius 71.6029
lwrist 31.6602
lhand -38.9471 27.7908
lfingers 7.12502
lthumb -11.9526 57.4296
rfemur -28.1612 -6.58481 -3.25877
rtibia 51.7013
rfoot -17.4935 -20.586
rtoes 3.37298
lfemur -53.6851 32.4204 8.95719
ltibia 107.438
lfoot -11.3768 -2.32476
ltoes 2.5918
1836
root -4.43395 17.3038 -7.33403 -275.15 54.3824 -278.882
lowerback 24.2004 3.73945 -7.60056
upperback 2.1406 2.41692 -9.84945
thorax -11.0188 1.51747 -7.76758
lowerneck -4.48379 9.72772 0.739435
upperneck 6.37877 14.3599 -12.8336
head 3.65037 6.80881 -3.24854
rclavicle 1.31198e-014 -2.06736e-014
rhumerus -19.6924 53.0464 -56.2486
rradius 100.748
rwrist 12.5275
rhand 0.321483 -26.085
rfingers 7.12502
rthumb 25.8983 -54.3411
lclavicle 1.31198e-014 -2.06736e-014
lhumerus -27.1734 17.2932 46.7538
lradius 66.5766
lwrist 30.5996
lhand -40.1748 28.2476
lfingers 7.12502
lthumb -13.1363 57.8138
rfemur -28.3387 -7.21948 -5.53262
rtibia 50.3102
rfoot -17.1601 -18.81
rtoes 4.14316
lfemur -51.1482 33.1599 10.6749
ltibia 102.517
lfoot -11.803 1.26074
ltoes 4.09518
1837
root -4.39844 17.4349 -7.43461 -276.85 52.5187 -281.329
lowerback 23.5724 3.89271 -8.51516
upperback 1.97716 2.42494 -10.4195
thorax -10.8788 1.5695 -7.88407
lowerneck -4.6535 9.6602 0.741528
upperneck 6.3156 14.3374 -13.3677
head 3.70008 6.7818 -3.39822
rclavicle -9.93923e-015 2.38542e-014
rhumerus -17.5404 54.0284 -55.4086
rradius 100.715
rwrist 12.5869
rhand 0.685463 -25.6711
rfingers 7.12502
rthumb 26.2468 -53.8759
lclavicle -9.93923e-015 2.38542e-014
lhumerus -28.481 18.261 45.469
lradius 61.5941
lwrist 29.124
lhand -41.0104 28.4815
lfingers 7.12502
lthumb -13.9417 57.994
rfemur -28.8161 -7.89225 -7.65891
rtibia 48.7989
rfoot -16.7958 -16.8506
rtoes 4.83311
lfemur -47.909 33.5856 12.3044
ltibia 96.3436
lfoot -12.3937 4.42349
ltoes 3.90433
1838
root -4.39472 17.5509 -7.51564 -278.639 50.9243 -283.182
lowerback 23.9964 4.02201 -9.50135
upperback 1.90111 2.2464 -10.7999
thorax -11.2301 1.53625 -7.78403
lowerneck -4.74567 9.60979 0.80069
upperneck 6.07328 14.2979 -13.8741
head 3.68326 6.7594 -3.55829
rclavicle -3.18055e-014 3.81667e-014
rhumerus -15.212 54.9783 -54.608
rradius 100.642
rwrist 12.5011
rhand 1.01979 -25.7553
rfingers 7.12502
rthumb 26.5668 -53.912
lclavicle -3.18055e-014 3.81667e-014
lhumerus -29.9939 19.4851 44.0837
lradius 56.9487
lwrist 27.3321
lhand -41.2362 28.7533
lfingers 7.12502
lthumb -14.1593 58.2508
rfemur -28.5809 -8.50964 -9.35086
rtibia 47.1793
rfoot -16.595 -15.003
rtoes 6.20168
lfemur -43.4322 32.9894 14.5961
ltibia 88.5815
lfoot -12.7016 6.5011
ltoes 3.58342
1839
root -4.37594 17.6643 -7.6016 -280.322 49.3864 -285.128
lowerback 23.9915 4.13716 -10.4313
upperback 1.81054 2.12365 -11.1348
thorax -11.36 1.52771 -7.63699
lowerneck -4.75523 9.58651 0.809331
upperneck 5.75341 14.2707 -14.2911
head 3.61977 6.75232 -3.6903
rclavicle 0 -8.74653e-014
rhumerus -12.7375 55.9472 -53.6774
rradius 100.624
rwrist 12.1311
rhand 1.64021 -26.0946
rfingers 7.12502
rthumb 27.1604 -54.16
lclavicle 0 -8.74653e-014
lhumerus -31.8279 20.7642 42.6506
lradius 52.7968
lwrist 25.6123
lhand -41.0669 28.4182
lfingers 7.12502
lthumb -13.9961 57.9271
rfemur -28.4682 -9.04948 -10.8817
rtibia 45.3808
rfoot -16.4162 -13.218
rtoes 7.89033
lfemur -38.3351 31.8948 16.8833
ltibia 79.5147
lfoot -13.0073 8.74495
ltoes 1.64761
1840
root -4.33856 17.7724 -7.69816 -281.846 48.0499 -287.081
lowerback 23.6094 4.22874 -10.9692
upperback 1.74045 2.1434 -11.4397
thorax -11.2405 1.56432 -7.67841
lowerneck -4.76803 9.52317 0.814935
upperneck 5.47539 14.1786 -14.5966
head 3.55537 6.71383 -3.79291
rclavicle -7.95139e-016 -9.54166e-014
rhumerus -10.4486 56.814 -52.7946
rradius 100.651
rwrist 11.5371
rhand 2.12722 -26.1853
rfingers 7.12502
rthumb 27.6263 -54.177
lclavicle -7.95139e-016 -9.54166e-014
lhumerus -33.7626 22.2002 41.2712
lradius 49.1068
lwrist 24.002
lhand -40.425 26.5003
lfingers 7.12502
lthumb -13.3775 56.0509
rfemur -28.3816 -9.64514 -12.1248
rtibia 43.3717
rfoot -16.1135 -11.6493
rtoes 8.75776
lfemur -32.7183 30.2934 19.3042
ltibia 69.1537
lfoot -13.0834 11.3286
ltoes -1.44969
1841
root -4.29637 17.875 -7.79507 -283.262 46.7864 -288.832
lowerback 23.2758 4.30636 -11.4222
upperback 1.69543 2.1678 -11.7211
thorax -11.1153 1.59857 -7.74335
lowerneck -4.81189 9.44606 0.859133
upperneck 5.27248 14.0625 -14.8091
head 3.51199 6.66029 -3.87245
rclavicle -2.46493e-014 5.725e-014
rhumerus -8.27537 57.5496 -52.039
rradius 100.607
rwrist 10.5807
rhand 2.35139 -25.7063
rfingers 7.12502
rthumb 27.8406 -53.6636
lclavicle -2.46493e-014 5.725e-014
lhumerus -35.8115 23.4224 39.8468
lradius 45.8775
lwrist 22.7504
lhand -39.751 23.4433
lfingers 7.12502
lthumb -12.7278 53.0354
rfemur -27.9711 -9.91722 -13.3485
rtibia 41.0728
rfoot -15.9916 -10.2187
rtoes 10.6898
lfemur -26.4322 27.2857 21.7187
ltibia 57.5029
lfoot -12.382 14.9461
ltoes -4.4756
1842
root -4.24978 17.973 -7.88248 -284.456 45.6799 -290.286
lowerback 22.9355 4.31199 -11.9209
upperback 1.64218 2.09097 -11.8529
thorax -11.0073 1.58522 -7.56759
lowerneck -4.73662 9.40607 0.997283
upperneck 5.09845 14.0092 -15.1703
head 3.48 6.64019 -4.01091
rclavicle 7.95139e-015 1.43125e-014
rhumerus -5.94515 58.4505 -51.0417
rradius 100.599
rwrist 9.42003
rhand 2.88824 -25.7284
rfingers 7.12502
rthumb 28.3538 -53.6015
lclavicle 7.95139e-015 1.43125e-014
lhumerus -38.1952 24.8991 38.3076
lradius 42.9287
lwrist 21.0248
lhand -38.5169 20.338
lfingers 7.12502
lthumb -11.5378 50.0004
rfemur -27.2557 -9.76685 -14.4539
rtibia 38.5653
rfoot -15.7108 -9.51842
rtoes 11.8358
lfemur -19.7734 22.5129 24.0987
ltibia 44.8027
lfoot -9.54813 19.6721
ltoes -7.51078
1843
root -4.20092 18.0791 -7.95153 -285.37 44.6566 -291.351
lowerback 22.6139 4.25556 -12.3441
upperback 1.62302 1.95998 -11.9222
thorax -10.8697 1.54197 -7.3385
lowerneck -4.67959 9.37515 1.04415
upperneck 5.0671 13.9845 -15.4213
head 3.48154 6.62718 -4.09737
rclavicle -9.46215e-014 -4.6118e-014
rhumerus -3.66045 59.3534 -50.0333
rradius 100.491
rwrist 8.093
rhand 3.52844 -25.4951
rfingers 7.12502
rthumb 28.9654 -53.2648
lclavicle -9.46215e-014 -4.6118e-014
lhumerus -40.7098 26.3651 36.7622
lradius 40.3476
lwrist 19.3906
lhand -37.0592 17.9319
lfingers 7.12502
lthumb -10.1317 47.6679
rfemur -26.2598 -9.44511 -15.5598
rtibia 35.9772
rfoot -15.067 -9.23519
rtoes 12.1147
lfemur -12.8139 15.3164 26.2778
ltibia 31.1352
lfoot -4.82458 25.6132
ltoes -6.79928
1844
root -4.15386 18.1751 -8.02636 -286.01 43.8708 -292.095
lowerback 22.3431 4.16342 -12.4303
upperback 1.62925 1.86273 -11.9647
thorax -10.7185 1.49651 -7.27717
lowerneck -4.70413 9.28819 1.32229
upperneck 5.30307 13.9141 -15.7101
head 3.59124 6.57464 -4.2237
rclavicle 1.90833e-014 4.13472e-014
rhumerus -1.76769 60.012 -49.203
rradius 100.362
rwrist 6.56339
rhand 3.87143 -24.8383
rfingers 7.12502
rthumb 29.2929 -52.5513
lclavicle 1.90833e-014 4.13472e-014
lhumerus -43.0487 28.0563 35.1355
lradius 37.7763
lwrist 16.6773
lhand -35.3052 16.301
lfingers 7.12502
lthumb -8.4393 46.1124
rfemur -25.1682 -9.05884 -16.531
rtibia 33.4803
rfoot -14.104 -9.1559
rtoes 11.5406
lfemur -4.58339 5.78919 28.397
ltibia 14.8356
lfoot 1.19362 31.8687
ltoes -4.75224
